<svg
	width="67"
	height="58"
	viewBox="0 0 67 58"
	fill="none"
	xmlns="http://www.w3.org/2000/svg"
>
	<path
		d="M0.90438 27.7046L15.8878 1.63772C16.4321 0.695223 17.4375 0 18.5258 0H48.4931C49.5817 0 50.5873 0.695223 51.1316 1.63772L66.115 27.6471C66.6593 28.5899 66.6593 29.7796 66.115 30.7224L51.1316 56.5756C50.5873 57.5181 49.5817 58 48.4931 58H18.526C17.4377 58 16.4321 57.5326 15.8881 56.5899L0.904639 30.6944C0.359853 29.7522 0.359853 28.6471 0.90438 27.7046ZM13.3115 40.2393C13.3115 40.6225 13.5422 40.977 13.8744 41.1689L32.96 52.1803C33.2919 52.3719 33.7078 52.3719 34.0397 52.1803L53.1401 41.1689C53.4721 40.977 53.7043 40.6228 53.7043 40.2393V18.2161C53.7043 17.8327 53.4754 17.4785 53.1432 17.2866L34.0584 6.27513C33.7264 6.08327 33.3111 6.08327 32.9792 6.27513L13.8775 17.2866C13.5453 17.4785 13.3115 17.8327 13.3115 18.2161V40.2393Z"
		fill="#2D3C36"
	/>
	<path
		d="M13.3115 40.2393C13.3115 40.6225 13.5422 40.977 13.8744 41.1689L32.96 52.1803C33.2919 52.3719 33.7078 52.3719 34.0397 52.1803L53.1401 41.1689C53.4721 40.977 53.7043 40.6228 53.7043 40.2393V18.2161C53.7043 17.8327 53.4754 17.4785 53.1432 17.2866L34.0584 6.27513C33.7264 6.08327 33.3111 6.08327 32.9792 6.27513L13.8775 17.2866C13.5453 17.4785 13.3115 17.8327 13.3115 18.2161V40.2393Z"
		fill="#F3EFEA"
	/>
	<path
		d="M35.8576 23.8686C38.6855 28.7667 37.0073 35.0297 32.1093 37.8576C27.2113 40.6855 20.9482 39.0073 18.1203 34.1093C15.2924 29.2112 16.9706 22.9482 21.8686 20.1203C26.7667 17.2924 33.0297 18.9706 35.8576 23.8686Z"
		fill="#2D3C36"
	/>
</svg>
